<mxfile host="app.diagrams.net" modified="2023-12-11T01:57:51.608Z" agent="Mozilla/5.0 (Windows NT 10.0; Win64; x64) AppleWebKit/537.36 (KHTML, like Gecko) Chrome/120.0.0.0 Safari/537.36" etag="ArRmiJAsIY8WG5NAkht6" version="22.1.7" type="device">
  <diagram name="ページ1" id="riSVBeFmMrVej5-FhOZP">
    <mxGraphModel dx="366" dy="739" grid="1" gridSize="10" guides="1" tooltips="1" connect="1" arrows="1" fold="1" page="0" pageScale="1" pageWidth="827" pageHeight="1169" math="0" shadow="0">
      <root>
        <mxCell id="0" />
        <mxCell id="1" parent="0" />
      </root>
    </mxGraphModel>
  </diagram>
</mxfile>
